STARTFONT 2.1
FONT -Fondu-Palatino-Medium-R-Normal--14-130-75-75-P-79-MacRoman-1
SIZE 13 75 75
FONTBOUNDINGBOX 18 16 -2 -4
COMMENT Created by Fondu from a mac NFNT/FONT resource
STARTPROPERTIES 17
FOUNDRY "Fondu"
FAMILY_NAME "Palatino"
WEIGHT_NAME "Medium"
SLANT "R"
SETWIDTH_NAME "Normal"
ADD_STYLE_NAME ""
PIXEL_SIZE 14
POINT_SIZE 130
RESOLUTION_X 75
RESOLUTION_Y 75
SPACING "P"
AVERAGE_WIDTH 79
CHARSET_REGISTRY "MacRoman"
CHARSET_ENCODING "1"
FONT_ASCENT 12
FONT_DESCENT 4
FACE_NAME "Palatino"
ENDPROPERTIES
CHARS 223
STARTCHAR space
ENCODING 32
SWIDTH 250 0
DWIDTH 3 0
BBX 1 0 0 -4
BITMAP
ENDCHAR
STARTCHAR exclam
ENCODING 33
SWIDTH 278 0
DWIDTH 4 0
BBX 1 11 1 0
BITMAP
80
80
80
80
80
80
80
80
00
80
80
ENDCHAR
STARTCHAR quotedbl
ENCODING 34
SWIDTH 371 0
DWIDTH 6 0
BBX 3 4 1 7
BITMAP
A0
A0
A0
A0
ENDCHAR
STARTCHAR numbersign
ENCODING 35
SWIDTH 606 0
DWIDTH 10 0
BBX 10 10 0 0
BITMAP
0900
0900
0900
7FC0
1200
1200
FF80
2400
2400
2400
ENDCHAR
STARTCHAR dollar
ENCODING 36
SWIDTH 500 0
DWIDTH 7 0
BBX 5 13 1 -1
BITMAP
20
70
A8
A8
A0
A0
70
28
28
A8
A8
70
20
ENDCHAR
STARTCHAR percent
ENCODING 37
SWIDTH 840 0
DWIDTH 12 0
BBX 10 12 1 -1
BITMAP
6100
DF00
9200
9200
9400
6580
0B40
0A40
1240
1240
2180
2000
ENDCHAR
STARTCHAR ampersand
ENCODING 38
SWIDTH 778 0
DWIDTH 12 0
BBX 11 11 1 0
BITMAP
1800
3400
2400
2800
33C0
7900
CD00
8600
8300
C5A0
78C0
ENDCHAR
STARTCHAR quotesingle
ENCODING 39
SWIDTH 208 0
DWIDTH 4 0
BBX 1 4 1 7
BITMAP
80
80
80
80
ENDCHAR
STARTCHAR parenleft
ENCODING 40
SWIDTH 333 0
DWIDTH 5 0
BBX 3 13 1 -2
BITMAP
20
40
40
80
80
80
80
80
80
80
40
40
20
ENDCHAR
STARTCHAR parenright
ENCODING 41
SWIDTH 333 0
DWIDTH 4 0
BBX 3 13 0 -2
BITMAP
80
40
40
20
20
20
20
20
20
20
40
40
80
ENDCHAR
STARTCHAR asterisk
ENCODING 42
SWIDTH 389 0
DWIDTH 8 0
BBX 5 5 1 6
BITMAP
20
20
F8
70
D8
ENDCHAR
STARTCHAR plus
ENCODING 43
SWIDTH 606 0
DWIDTH 9 0
BBX 7 7 1 1
BITMAP
10
10
10
FE
10
10
10
ENDCHAR
STARTCHAR comma
ENCODING 44
SWIDTH 250 0
DWIDTH 4 0
BBX 2 3 0 -1
BITMAP
40
40
80
ENDCHAR
STARTCHAR hyphen
ENCODING 45
SWIDTH 333 0
DWIDTH 6 0
BBX 4 1 1 4
BITMAP
F0
ENDCHAR
STARTCHAR period
ENCODING 46
SWIDTH 250 0
DWIDTH 4 0
BBX 1 2 1 0
BITMAP
80
80
ENDCHAR
STARTCHAR slash
ENCODING 47
SWIDTH 606 0
DWIDTH 6 0
BBX 4 12 1 -1
BITMAP
10
10
10
20
20
20
40
40
40
80
80
80
ENDCHAR
STARTCHAR zero
ENCODING 48
SWIDTH 500 0
DWIDTH 7 0
BBX 5 11 1 0
BITMAP
70
98
88
88
88
88
88
88
88
C8
70
ENDCHAR
STARTCHAR one
ENCODING 49
SWIDTH 500 0
DWIDTH 7 0
BBX 4 11 1 0
BITMAP
20
60
A0
20
20
20
20
20
20
20
70
ENDCHAR
STARTCHAR two
ENCODING 50
SWIDTH 500 0
DWIDTH 7 0
BBX 5 11 1 0
BITMAP
70
98
88
08
08
10
10
20
40
88
F8
ENDCHAR
STARTCHAR three
ENCODING 51
SWIDTH 500 0
DWIDTH 7 0
BBX 5 11 1 0
BITMAP
70
98
88
08
10
70
18
08
08
98
F0
ENDCHAR
STARTCHAR four
ENCODING 52
SWIDTH 500 0
DWIDTH 7 0
BBX 5 11 1 0
BITMAP
10
30
30
50
50
90
90
F8
10
10
38
ENDCHAR
STARTCHAR five
ENCODING 53
SWIDTH 500 0
DWIDTH 7 0
BBX 5 11 1 0
BITMAP
F8
80
80
80
F0
18
08
08
08
98
F0
ENDCHAR
STARTCHAR six
ENCODING 54
SWIDTH 500 0
DWIDTH 7 0
BBX 5 11 1 0
BITMAP
10
20
40
40
B0
D8
88
88
88
98
70
ENDCHAR
STARTCHAR seven
ENCODING 55
SWIDTH 500 0
DWIDTH 7 0
BBX 5 11 1 0
BITMAP
F8
88
10
10
10
20
20
20
40
40
40
ENDCHAR
STARTCHAR eight
ENCODING 56
SWIDTH 500 0
DWIDTH 7 0
BBX 5 11 1 0
BITMAP
70
88
88
C8
70
70
98
88
88
D8
70
ENDCHAR
STARTCHAR nine
ENCODING 57
SWIDTH 500 0
DWIDTH 7 0
BBX 5 11 1 0
BITMAP
70
C8
88
88
88
D8
68
10
10
20
40
ENDCHAR
STARTCHAR colon
ENCODING 58
SWIDTH 250 0
DWIDTH 4 0
BBX 1 6 1 0
BITMAP
80
80
00
00
80
80
ENDCHAR
STARTCHAR semicolon
ENCODING 59
SWIDTH 250 0
DWIDTH 4 0
BBX 2 7 0 -1
BITMAP
40
40
00
00
40
40
80
ENDCHAR
STARTCHAR less
ENCODING 60
SWIDTH 606 0
DWIDTH 10 0
BBX 8 7 1 1
BITMAP
03
0C
30
C0
30
0C
03
ENDCHAR
STARTCHAR equal
ENCODING 61
SWIDTH 606 0
DWIDTH 9 0
BBX 7 4 1 3
BITMAP
FE
00
00
FE
ENDCHAR
STARTCHAR greater
ENCODING 62
SWIDTH 606 0
DWIDTH 10 0
BBX 8 7 1 1
BITMAP
C0
30
0C
03
0C
30
C0
ENDCHAR
STARTCHAR question
ENCODING 63
SWIDTH 444 0
DWIDTH 6 0
BBX 5 11 0 0
BITMAP
70
88
88
08
10
20
40
40
00
40
40
ENDCHAR
STARTCHAR at
ENCODING 64
SWIDTH 747 0
DWIDTH 12 0
BBX 10 11 1 0
BITMAP
1F00
2080
4E40
9240
A240
A480
A480
9B00
8000
4100
3E00
ENDCHAR
STARTCHAR A
ENCODING 65
SWIDTH 778 0
DWIDTH 9 0
BBX 9 11 0 0
BITMAP
0800
0C00
1400
1400
1600
2200
2200
3F00
4100
4100
E380
ENDCHAR
STARTCHAR B
ENCODING 66
SWIDTH 611 0
DWIDTH 9 0
BBX 7 11 1 0
BITMAP
F8
4C
44
44
48
7C
46
42
42
46
FC
ENDCHAR
STARTCHAR C
ENCODING 67
SWIDTH 709 0
DWIDTH 11 0
BBX 9 11 1 0
BITMAP
1F00
6180
4080
8000
8000
8000
8000
8000
C000
6080
3F00
ENDCHAR
STARTCHAR D
ENCODING 68
SWIDTH 774 0
DWIDTH 12 0
BBX 10 11 1 0
BITMAP
FF00
4180
40C0
4040
4040
4040
4040
4040
4080
4180
FE00
ENDCHAR
STARTCHAR E
ENCODING 69
SWIDTH 611 0
DWIDTH 9 0
BBX 7 11 1 0
BITMAP
FE
42
40
40
44
7C
44
40
40
42
FE
ENDCHAR
STARTCHAR F
ENCODING 70
SWIDTH 556 0
DWIDTH 9 0
BBX 7 11 1 0
BITMAP
FE
42
42
40
44
7C
44
40
40
40
E0
ENDCHAR
STARTCHAR G
ENCODING 71
SWIDTH 763 0
DWIDTH 12 0
BBX 10 11 1 0
BITMAP
1F80
60C0
4040
8000
8000
8000
81C0
8040
C040
6080
3F00
ENDCHAR
STARTCHAR H
ENCODING 72
SWIDTH 832 0
DWIDTH 12 0
BBX 10 11 1 0
BITMAP
E1C0
4080
4080
4080
4080
7F80
4080
4080
4080
4080
E1C0
ENDCHAR
STARTCHAR I
ENCODING 73
SWIDTH 337 0
DWIDTH 5 0
BBX 3 11 1 0
BITMAP
E0
40
40
40
40
40
40
40
40
40
E0
ENDCHAR
STARTCHAR J
ENCODING 74
SWIDTH 333 0
DWIDTH 5 0
BBX 3 13 1 -2
BITMAP
E0
40
40
40
40
40
40
40
40
40
40
40
80
ENDCHAR
STARTCHAR K
ENCODING 75
SWIDTH 726 0
DWIDTH 10 0
BBX 9 11 1 0
BITMAP
E300
4200
4400
4800
5000
7000
5800
4C00
4600
4300
E180
ENDCHAR
STARTCHAR L
ENCODING 76
SWIDTH 611 0
DWIDTH 8 0
BBX 7 11 1 0
BITMAP
E0
40
40
40
40
40
40
40
40
42
FE
ENDCHAR
STARTCHAR M
ENCODING 77
SWIDTH 946 0
DWIDTH 15 0
BBX 13 11 1 0
BITMAP
E038
6030
6030
7050
5050
5890
4890
4D10
4510
4610
E238
ENDCHAR
STARTCHAR N
ENCODING 78
SWIDTH 831 0
DWIDTH 12 0
BBX 10 11 1 0
BITMAP
E1C0
6080
5080
5080
4880
4880
4480
4480
4280
4280
E180
ENDCHAR
STARTCHAR O
ENCODING 79
SWIDTH 786 0
DWIDTH 12 0
BBX 10 11 1 0
BITMAP
1F00
6180
40C0
8040
8040
8040
8040
8040
C080
6180
3E00
ENDCHAR
STARTCHAR P
ENCODING 80
SWIDTH 604 0
DWIDTH 8 0
BBX 7 11 1 0
BITMAP
FC
46
42
42
44
78
40
40
40
40
E0
ENDCHAR
STARTCHAR Q
ENCODING 81
SWIDTH 786 0
DWIDTH 12 0
BBX 10 14 1 -3
BITMAP
1F00
6180
40C0
8040
8040
8040
8040
8040
C080
6180
3E00
1800
2640
0180
ENDCHAR
STARTCHAR R
ENCODING 82
SWIDTH 668 0
DWIDTH 10 0
BBX 8 11 1 0
BITMAP
FC
46
42
42
44
58
48
44
44
42
E3
ENDCHAR
STARTCHAR S
ENCODING 83
SWIDTH 525 0
DWIDTH 9 0
BBX 7 11 1 0
BITMAP
3C
C6
82
80
C0
7C
06
02
82
C6
78
ENDCHAR
STARTCHAR T
ENCODING 84
SWIDTH 613 0
DWIDTH 9 0
BBX 9 11 0 0
BITMAP
FF80
8880
0800
0800
0800
0800
0800
0800
0800
0800
1C00
ENDCHAR
STARTCHAR U
ENCODING 85
SWIDTH 778 0
DWIDTH 11 0
BBX 9 11 1 0
BITMAP
E380
4100
4100
4100
4100
4100
4100
4100
4100
6300
3E00
ENDCHAR
STARTCHAR V
ENCODING 86
SWIDTH 722 0
DWIDTH 9 0
BBX 9 11 0 0
BITMAP
E380
4100
4100
6100
2200
2200
3200
1400
1400
1C00
0800
ENDCHAR
STARTCHAR W
ENCODING 87
SWIDTH 1000 0
DWIDTH 13 0
BBX 13 11 0 0
BITMAP
E238
4210
4510
4510
6590
28A0
28A0
28A0
30C0
1040
1040
ENDCHAR
STARTCHAR X
ENCODING 88
SWIDTH 667 0
DWIDTH 10 0
BBX 10 11 0 0
BITMAP
E180
6100
3200
1200
1C00
0C00
1600
2200
2300
4180
C1C0
ENDCHAR
STARTCHAR Y
ENCODING 89
SWIDTH 667 0
DWIDTH 9 0
BBX 9 11 0 0
BITMAP
C180
4100
2200
2200
1400
1C00
0800
0800
0800
0800
1C00
ENDCHAR
STARTCHAR Z
ENCODING 90
SWIDTH 667 0
DWIDTH 8 0
BBX 8 11 0 0
BITMAP
FF
82
06
0C
08
10
30
60
40
81
FF
ENDCHAR
STARTCHAR bracketleft
ENCODING 91
SWIDTH 333 0
DWIDTH 4 0
BBX 2 13 1 -2
BITMAP
C0
80
80
80
80
80
80
80
80
80
80
80
C0
ENDCHAR
STARTCHAR backslash
ENCODING 92
SWIDTH 606 0
DWIDTH 8 0
BBX 6 12 1 -1
BITMAP
80
80
40
40
20
20
10
10
08
08
04
04
ENDCHAR
STARTCHAR bracketright
ENCODING 93
SWIDTH 333 0
DWIDTH 4 0
BBX 2 13 1 -2
BITMAP
C0
40
40
40
40
40
40
40
40
40
40
40
C0
ENDCHAR
STARTCHAR asciicircum
ENCODING 94
SWIDTH 606 0
DWIDTH 9 0
BBX 7 8 1 3
BITMAP
10
10
28
28
44
44
82
82
ENDCHAR
STARTCHAR underscore
ENCODING 95
SWIDTH 500 0
DWIDTH 9 0
BBX 9 1 0 -2
BITMAP
FF80
ENDCHAR
STARTCHAR grave
ENCODING 96
SWIDTH 333 0
DWIDTH 5 0
BBX 3 3 1 8
BITMAP
80
40
20
ENDCHAR
STARTCHAR a
ENCODING 97
SWIDTH 500 0
DWIDTH 8 0
BBX 7 7 0 0
BITMAP
38
4C
04
7C
84
CC
76
ENDCHAR
STARTCHAR b
ENCODING 98
SWIDTH 553 0
DWIDTH 7 0
BBX 7 11 -1 0
BITMAP
C0
40
40
40
5C
66
42
42
42
44
78
ENDCHAR
STARTCHAR c
ENCODING 99
SWIDTH 444 0
DWIDTH 6 0
BBX 5 7 0 0
BITMAP
38
C8
80
80
80
C0
78
ENDCHAR
STARTCHAR d
ENCODING 100
SWIDTH 611 0
DWIDTH 8 0
BBX 7 11 0 0
BITMAP
0C
04
04
04
3C
44
84
84
84
CC
76
ENDCHAR
STARTCHAR e
ENCODING 101
SWIDTH 479 0
DWIDTH 7 0
BBX 6 7 0 0
BITMAP
38
CC
84
FC
80
C4
78
ENDCHAR
STARTCHAR f
ENCODING 102
SWIDTH 333 0
DWIDTH 5 0
BBX 4 11 0 0
BITMAP
30
50
40
40
F0
40
40
40
40
40
E0
ENDCHAR
STARTCHAR g
ENCODING 103
SWIDTH 556 0
DWIDTH 8 0
BBX 7 11 0 -4
BITMAP
3E
44
44
44
38
40
3E
42
82
84
78
ENDCHAR
STARTCHAR h
ENCODING 104
SWIDTH 582 0
DWIDTH 8 0
BBX 7 11 0 0
BITMAP
C0
40
40
40
58
64
44
44
44
44
E6
ENDCHAR
STARTCHAR i
ENCODING 105
SWIDTH 291 0
DWIDTH 4 0
BBX 3 10 0 0
BITMAP
40
40
00
C0
40
40
40
40
40
E0
ENDCHAR
STARTCHAR j
ENCODING 106
SWIDTH 234 0
DWIDTH 4 0
BBX 2 14 0 -4
BITMAP
40
40
00
C0
40
40
40
40
40
40
40
40
40
80
ENDCHAR
STARTCHAR k
ENCODING 107
SWIDTH 556 0
DWIDTH 7 0
BBX 7 11 0 0
BITMAP
C0
40
40
40
44
48
50
70
58
4C
E6
ENDCHAR
STARTCHAR l
ENCODING 108
SWIDTH 291 0
DWIDTH 4 0
BBX 3 11 0 0
BITMAP
C0
40
40
40
40
40
40
40
40
40
E0
ENDCHAR
STARTCHAR m
ENCODING 109
SWIDTH 883 0
DWIDTH 12 0
BBX 11 7 0 0
BITMAP
D980
6640
4440
4440
4440
4440
E660
ENDCHAR
STARTCHAR n
ENCODING 110
SWIDTH 582 0
DWIDTH 8 0
BBX 7 7 0 0
BITMAP
D8
64
44
44
44
44
E6
ENDCHAR
STARTCHAR o
ENCODING 111
SWIDTH 546 0
DWIDTH 8 0
BBX 7 7 0 0
BITMAP
3C
C6
82
82
82
C6
78
ENDCHAR
STARTCHAR p
ENCODING 112
SWIDTH 601 0
DWIDTH 8 0
BBX 7 11 0 -4
BITMAP
DC
66
42
42
42
44
78
40
40
40
E0
ENDCHAR
STARTCHAR q
ENCODING 113
SWIDTH 560 0
DWIDTH 7 0
BBX 7 11 0 -4
BITMAP
3C
C4
84
84
84
4C
34
04
04
04
0E
ENDCHAR
STARTCHAR r
ENCODING 114
SWIDTH 395 0
DWIDTH 6 0
BBX 5 7 0 0
BITMAP
D8
60
40
40
40
40
E0
ENDCHAR
STARTCHAR s
ENCODING 115
SWIDTH 424 0
DWIDTH 6 0
BBX 5 7 0 0
BITMAP
78
88
80
70
08
88
F0
ENDCHAR
STARTCHAR t
ENCODING 116
SWIDTH 326 0
DWIDTH 5 0
BBX 4 9 0 0
BITMAP
40
40
F0
40
40
40
40
40
30
ENDCHAR
STARTCHAR u
ENCODING 117
SWIDTH 603 0
DWIDTH 8 0
BBX 8 7 -1 0
BITMAP
66
22
22
22
22
26
1B
ENDCHAR
STARTCHAR v
ENCODING 118
SWIDTH 565 0
DWIDTH 8 0
BBX 7 7 0 0
BITMAP
EE
44
44
28
28
10
10
ENDCHAR
STARTCHAR w
ENCODING 119
SWIDTH 834 0
DWIDTH 12 0
BBX 11 7 0 0
BITMAP
E4E0
4440
4440
2A80
2A80
1100
1100
ENDCHAR
STARTCHAR x
ENCODING 120
SWIDTH 516 0
DWIDTH 8 0
BBX 7 7 0 0
BITMAP
C2
64
38
10
38
4C
86
ENDCHAR
STARTCHAR y
ENCODING 121
SWIDTH 556 0
DWIDTH 7 0
BBX 8 11 -1 -4
BITMAP
E7
42
64
24
28
18
10
10
20
20
C0
ENDCHAR
STARTCHAR z
ENCODING 122
SWIDTH 500 0
DWIDTH 7 0
BBX 6 7 0 0
BITMAP
FC
88
10
20
40
84
FC
ENDCHAR
STARTCHAR braceleft
ENCODING 123
SWIDTH 333 0
DWIDTH 4 0
BBX 3 13 0 -2
BITMAP
20
40
40
40
40
40
80
40
40
40
40
40
20
ENDCHAR
STARTCHAR bar
ENCODING 124
SWIDTH 606 0
DWIDTH 8 0
BBX 1 11 3 0
BITMAP
80
80
80
80
80
80
80
80
80
80
80
ENDCHAR
STARTCHAR braceright
ENCODING 125
SWIDTH 333 0
DWIDTH 4 0
BBX 3 13 0 -2
BITMAP
80
40
40
40
40
40
20
40
40
40
40
40
80
ENDCHAR
STARTCHAR asciitilde
ENCODING 126
SWIDTH 606 0
DWIDTH 10 0
BBX 8 2 1 4
BITMAP
71
8E
ENDCHAR
STARTCHAR Adieresis
ENCODING 128
SWIDTH 778 0
DWIDTH 9 0
BBX 9 11 0 0
BITMAP
1200
1200
0000
0000
0800
1400
2200
3E00
4100
4100
E380
ENDCHAR
STARTCHAR Aring
ENCODING 129
SWIDTH 778 0
DWIDTH 9 0
BBX 9 11 0 0
BITMAP
0C00
1200
1200
0C00
0800
1400
2200
3E00
4100
4100
E380
ENDCHAR
STARTCHAR Ccedilla
ENCODING 130
SWIDTH 709 0
DWIDTH 11 0
BBX 9 14 1 -3
BITMAP
1F00
6180
4080
8000
8000
8000
8000
8000
C000
6080
3F00
0800
0400
1800
ENDCHAR
STARTCHAR Eacute
ENCODING 131
SWIDTH 611 0
DWIDTH 9 0
BBX 7 11 1 0
BITMAP
08
10
20
00
FE
42
40
78
40
42
FE
ENDCHAR
STARTCHAR Ntilde
ENCODING 132
SWIDTH 831 0
DWIDTH 12 0
BBX 10 11 1 0
BITMAP
1900
2600
0000
0000
E1C0
5080
4880
4480
4280
4180
E080
ENDCHAR
STARTCHAR Odieresis
ENCODING 133
SWIDTH 786 0
DWIDTH 12 0
BBX 10 11 1 0
BITMAP
1200
1200
0000
0000
1F00
6180
40C0
8040
C080
6180
3E00
ENDCHAR
STARTCHAR Udieresis
ENCODING 134
SWIDTH 778 0
DWIDTH 11 0
BBX 9 11 1 0
BITMAP
2400
2400
0000
0000
E380
4100
4100
4100
4100
6300
3E00
ENDCHAR
STARTCHAR aacute
ENCODING 135
SWIDTH 500 0
DWIDTH 8 0
BBX 7 11 0 0
BITMAP
08
10
20
00
38
4C
04
7C
84
CC
76
ENDCHAR
STARTCHAR agrave
ENCODING 136
SWIDTH 500 0
DWIDTH 8 0
BBX 7 11 0 0
BITMAP
20
10
08
00
38
4C
04
7C
84
CC
76
ENDCHAR
STARTCHAR acircumflex
ENCODING 137
SWIDTH 500 0
DWIDTH 8 0
BBX 7 11 0 0
BITMAP
10
28
44
00
38
4C
04
7C
84
CC
76
ENDCHAR
STARTCHAR adieresis
ENCODING 138
SWIDTH 500 0
DWIDTH 8 0
BBX 7 10 0 0
BITMAP
48
48
00
38
4C
04
7C
84
CC
76
ENDCHAR
STARTCHAR atilde
ENCODING 139
SWIDTH 500 0
DWIDTH 8 0
BBX 7 10 0 0
BITMAP
24
58
00
38
4C
04
7C
84
CC
76
ENDCHAR
STARTCHAR aring
ENCODING 140
SWIDTH 500 0
DWIDTH 8 0
BBX 7 12 0 0
BITMAP
30
48
48
30
00
38
4C
04
7C
84
CC
76
ENDCHAR
STARTCHAR ccedilla
ENCODING 141
SWIDTH 444 0
DWIDTH 6 0
BBX 5 10 0 -3
BITMAP
38
C8
80
80
80
C0
78
20
10
60
ENDCHAR
STARTCHAR eacute
ENCODING 142
SWIDTH 479 0
DWIDTH 7 0
BBX 6 11 0 0
BITMAP
10
20
40
00
38
CC
84
FC
80
C4
78
ENDCHAR
STARTCHAR egrave
ENCODING 143
SWIDTH 479 0
DWIDTH 7 0
BBX 6 11 0 0
BITMAP
40
20
10
00
38
CC
84
FC
80
C4
78
ENDCHAR
STARTCHAR ecircumflex
ENCODING 144
SWIDTH 479 0
DWIDTH 7 0
BBX 6 11 0 0
BITMAP
20
50
88
00
38
CC
84
FC
80
C4
78
ENDCHAR
STARTCHAR edieresis
ENCODING 145
SWIDTH 479 0
DWIDTH 7 0
BBX 6 10 0 0
BITMAP
48
48
00
38
CC
84
FC
80
C4
78
ENDCHAR
STARTCHAR iacute
ENCODING 146
SWIDTH 287 0
DWIDTH 4 0
BBX 3 11 0 0
BITMAP
20
40
80
00
C0
40
40
40
40
40
E0
ENDCHAR
STARTCHAR igrave
ENCODING 147
SWIDTH 287 0
DWIDTH 4 0
BBX 3 11 0 0
BITMAP
80
40
20
00
C0
40
40
40
40
40
E0
ENDCHAR
STARTCHAR icircumflex
ENCODING 148
SWIDTH 287 0
DWIDTH 4 0
BBX 5 11 -1 0
BITMAP
20
50
88
00
60
20
20
20
20
20
70
ENDCHAR
STARTCHAR idieresis
ENCODING 149
SWIDTH 287 0
DWIDTH 4 0
BBX 4 10 -1 0
BITMAP
90
90
00
60
20
20
20
20
20
70
ENDCHAR
STARTCHAR ntilde
ENCODING 150
SWIDTH 582 0
DWIDTH 8 0
BBX 7 10 0 0
BITMAP
24
58
00
D8
64
44
44
44
44
E6
ENDCHAR
STARTCHAR oacute
ENCODING 151
SWIDTH 546 0
DWIDTH 8 0
BBX 7 11 0 0
BITMAP
08
10
20
00
3C
C6
82
82
82
C6
78
ENDCHAR
STARTCHAR ograve
ENCODING 152
SWIDTH 546 0
DWIDTH 8 0
BBX 7 11 0 0
BITMAP
20
10
08
00
3C
C6
82
82
82
C6
78
ENDCHAR
STARTCHAR ocircumflex
ENCODING 153
SWIDTH 546 0
DWIDTH 8 0
BBX 7 11 0 0
BITMAP
10
28
44
00
3C
C6
82
82
82
C6
78
ENDCHAR
STARTCHAR odieresis
ENCODING 154
SWIDTH 546 0
DWIDTH 8 0
BBX 7 10 0 0
BITMAP
48
48
00
3C
C6
82
82
82
C6
78
ENDCHAR
STARTCHAR otilde
ENCODING 155
SWIDTH 546 0
DWIDTH 8 0
BBX 7 10 0 0
BITMAP
24
58
00
3C
C6
82
82
82
C6
78
ENDCHAR
STARTCHAR uacute
ENCODING 156
SWIDTH 603 0
DWIDTH 8 0
BBX 8 11 -1 0
BITMAP
08
10
20
00
66
22
22
22
22
26
1B
ENDCHAR
STARTCHAR ugrave
ENCODING 157
SWIDTH 603 0
DWIDTH 8 0
BBX 8 11 -1 0
BITMAP
20
10
08
00
66
22
22
22
22
26
1B
ENDCHAR
STARTCHAR ucircumflex
ENCODING 158
SWIDTH 603 0
DWIDTH 8 0
BBX 8 11 -1 0
BITMAP
10
28
44
00
66
22
22
22
22
26
1B
ENDCHAR
STARTCHAR udieresis
ENCODING 159
SWIDTH 603 0
DWIDTH 8 0
BBX 8 11 -1 0
BITMAP
24
24
00
00
66
22
22
22
22
26
1B
ENDCHAR
STARTCHAR dagger
ENCODING 160
SWIDTH 500 0
DWIDTH 7 0
BBX 5 11 1 0
BITMAP
20
20
20
20
F8
20
20
20
20
20
20
ENDCHAR
STARTCHAR degree
ENCODING 161
SWIDTH 400 0
DWIDTH 6 0
BBX 4 4 1 6
BITMAP
60
90
90
60
ENDCHAR
STARTCHAR cent
ENCODING 162
SWIDTH 500 0
DWIDTH 7 0
BBX 5 11 1 -2
BITMAP
10
10
38
D0
90
A0
A0
E0
78
40
40
ENDCHAR
STARTCHAR sterling
ENCODING 163
SWIDTH 500 0
DWIDTH 9 0
BBX 7 11 1 0
BITMAP
0E
12
20
20
20
FC
20
20
22
42
FE
ENDCHAR
STARTCHAR section
ENCODING 164
SWIDTH 500 0
DWIDTH 7 0
BBX 6 14 0 -3
BITMAP
78
CC
84
80
40
70
8C
84
64
18
04
84
CC
78
ENDCHAR
STARTCHAR bullet
ENCODING 165
SWIDTH 606 0
DWIDTH 8 0
BBX 5 5 1 3
BITMAP
70
F8
F8
F8
70
ENDCHAR
STARTCHAR paragraph
ENCODING 166
SWIDTH 628 0
DWIDTH 9 0
BBX 7 14 1 -3
BITMAP
7E
D4
D4
D4
D4
74
14
14
14
14
14
14
14
3E
ENDCHAR
STARTCHAR germandbls
ENCODING 167
SWIDTH 556 0
DWIDTH 8 0
BBX 7 11 0 0
BITMAP
1C
22
42
42
CC
50
58
46
42
52
FC
ENDCHAR
STARTCHAR registered
ENCODING 168
SWIDTH 747 0
DWIDTH 12 0
BBX 10 11 1 0
BITMAP
1E00
6180
4080
BE40
9240
9C40
9640
B340
4080
6180
1E00
ENDCHAR
STARTCHAR copyright
ENCODING 169
SWIDTH 747 0
DWIDTH 12 0
BBX 10 11 1 0
BITMAP
1E00
6180
4080
8E40
9240
9040
9840
8E40
4080
6180
1E00
ENDCHAR
STARTCHAR trademark
ENCODING 170
SWIDTH 979 0
DWIDTH 17 0
BBX 15 6 1 4
BITMAP
FB8E
A98C
2154
2154
2124
73AE
ENDCHAR
STARTCHAR acute
ENCODING 171
SWIDTH 333 0
DWIDTH 5 0
BBX 3 3 1 8
BITMAP
20
40
80
ENDCHAR
STARTCHAR dieresis
ENCODING 172
SWIDTH 333 0
DWIDTH 6 0
BBX 4 2 1 9
BITMAP
90
90
ENDCHAR
STARTCHAR notequal
ENCODING 173
SWIDTH 549 0
DWIDTH 8 0
BBX 7 7 0 0
BITMAP
04
08
FE
10
FE
20
40
ENDCHAR
STARTCHAR AE
ENCODING 174
SWIDTH 944 0
DWIDTH 14 0
BBX 13 11 0 0
BITMAP
0FF8
0508
0900
0900
1110
11F0
3F10
2100
4100
4108
E3F8
ENDCHAR
STARTCHAR Oslash
ENCODING 175
SWIDTH 833 0
DWIDTH 12 0
BBX 11 11 0 0
BITMAP
0FA0
30C0
20E0
4120
4220
4420
4820
5020
6040
70C0
9F00
ENDCHAR
STARTCHAR infinity
ENCODING 176
SWIDTH 713 0
DWIDTH 10 0
BBX 9 4 0 2
BITMAP
7700
9880
8C80
7700
ENDCHAR
STARTCHAR plusminus
ENCODING 177
SWIDTH 549 0
DWIDTH 8 0
BBX 7 9 0 0
BITMAP
10
10
10
FE
10
10
10
00
FE
ENDCHAR
STARTCHAR lessequal
ENCODING 178
SWIDTH 549 0
DWIDTH 8 0
BBX 7 9 0 0
BITMAP
02
0C
30
C0
30
0C
02
00
FE
ENDCHAR
STARTCHAR greaterequal
ENCODING 179
SWIDTH 549 0
DWIDTH 8 0
BBX 7 9 0 0
BITMAP
80
60
18
06
18
60
80
00
FE
ENDCHAR
STARTCHAR yen
ENCODING 180
SWIDTH 500 0
DWIDTH 9 0
BBX 9 11 0 0
BITMAP
C180
4100
2200
2200
1400
7F00
0800
7F00
0800
0800
1C00
ENDCHAR
STARTCHAR mu
ENCODING 181
SWIDTH 576 0
DWIDTH 8 0
BBX 8 9 0 -2
BITMAP
44
44
44
44
44
4D
7B
40
C0
ENDCHAR
STARTCHAR partialdiff
ENCODING 182
SWIDTH 494 0
DWIDTH 7 0
BBX 6 10 0 0
BITMAP
78
84
04
04
74
CC
84
84
C8
70
ENDCHAR
STARTCHAR summation
ENCODING 183
SWIDTH 713 0
DWIDTH 10 0
BBX 9 11 0 -1
BITMAP
FF00
4100
2000
1000
0800
0800
1000
2000
4000
8080
FF80
ENDCHAR
STARTCHAR product
ENCODING 184
SWIDTH 823 0
DWIDTH 12 0
BBX 10 11 1 -1
BITMAP
FFC0
4080
4080
4080
4080
4080
4080
4080
4080
4080
E1C0
ENDCHAR
STARTCHAR pi
ENCODING 185
SWIDTH 549 0
DWIDTH 8 0
BBX 8 7 0 0
BITMAP
7E
A4
24
24
24
25
66
ENDCHAR
STARTCHAR integral
ENCODING 186
SWIDTH 274 0
DWIDTH 4 0
BBX 5 12 0 -2
BITMAP
18
28
20
20
20
20
20
20
20
20
A0
C0
ENDCHAR
STARTCHAR ordfeminine
ENCODING 187
SWIDTH 333 0
DWIDTH 6 0
BBX 5 7 0 4
BITMAP
60
90
70
90
F8
00
F8
ENDCHAR
STARTCHAR ordmasculine
ENCODING 188
SWIDTH 333 0
DWIDTH 6 0
BBX 5 7 0 4
BITMAP
70
88
88
88
70
00
F8
ENDCHAR
STARTCHAR Omega
ENCODING 189
SWIDTH 768 0
DWIDTH 11 0
BBX 10 10 0 0
BITMAP
0C00
3300
2100
4080
4080
4080
2100
3300
9240
F3C0
ENDCHAR
STARTCHAR ae
ENCODING 190
SWIDTH 758 0
DWIDTH 12 0
BBX 11 7 0 0
BITMAP
79C0
8E60
0420
7FE0
8400
CE20
73C0
ENDCHAR
STARTCHAR oslash
ENCODING 191
SWIDTH 556 0
DWIDTH 8 0
BBX 7 9 0 -1
BITMAP
02
3C
C6
8A
92
A2
C6
78
80
ENDCHAR
STARTCHAR questiondown
ENCODING 192
SWIDTH 444 0
DWIDTH 6 0
BBX 5 11 0 -4
BITMAP
10
10
00
10
10
20
40
80
88
88
70
ENDCHAR
STARTCHAR exclamdown
ENCODING 193
SWIDTH 278 0
DWIDTH 4 0
BBX 1 11 1 -4
BITMAP
80
80
00
80
80
80
80
80
80
80
80
ENDCHAR
STARTCHAR logicalnot
ENCODING 194
SWIDTH 606 0
DWIDTH 9 0
BBX 7 4 1 2
BITMAP
FE
02
02
02
ENDCHAR
STARTCHAR radical
ENCODING 195
SWIDTH 549 0
DWIDTH 8 0
BBX 7 10 0 0
BITMAP
02
02
02
64
A4
24
14
14
08
08
ENDCHAR
STARTCHAR florin
ENCODING 196
SWIDTH 500 0
DWIDTH 7 0
BBX 7 15 0 -4
BITMAP
06
0A
08
08
3C
10
10
10
10
20
20
20
20
A0
C0
ENDCHAR
STARTCHAR approxequal
ENCODING 197
SWIDTH 549 0
DWIDTH 8 0
BBX 7 5 0 2
BITMAP
72
9C
00
72
9C
ENDCHAR
STARTCHAR Delta
ENCODING 198
SWIDTH 612 0
DWIDTH 9 0
BBX 7 10 1 0
BITMAP
10
10
28
28
28
44
44
44
82
FE
ENDCHAR
STARTCHAR guillemotleft
ENCODING 199
SWIDTH 500 0
DWIDTH 7 0
BBX 6 5 0 2
BITMAP
24
48
90
48
24
ENDCHAR
STARTCHAR guillemotright
ENCODING 200
SWIDTH 500 0
DWIDTH 7 0
BBX 6 5 0 2
BITMAP
90
48
24
48
90
ENDCHAR
STARTCHAR ellipsis
ENCODING 201
SWIDTH 1000 0
DWIDTH 12 0
BBX 9 2 1 0
BITMAP
8880
8880
ENDCHAR
STARTCHAR nbspace
ENCODING 202
SWIDTH 250 0
DWIDTH 4 0
BBX 1 0 0 -4
BITMAP
ENDCHAR
STARTCHAR Agrave
ENCODING 203
SWIDTH 778 0
DWIDTH 9 0
BBX 9 11 0 0
BITMAP
1000
0800
0400
0000
0800
1400
2200
3E00
4100
4100
E380
ENDCHAR
STARTCHAR Atilde
ENCODING 204
SWIDTH 778 0
DWIDTH 9 0
BBX 9 10 0 0
BITMAP
1900
2600
0000
0800
1400
2200
3E00
4100
4100
E380
ENDCHAR
STARTCHAR Otilde
ENCODING 205
SWIDTH 786 0
DWIDTH 12 0
BBX 10 10 1 0
BITMAP
1900
2600
0000
1F00
6180
40C0
8040
C080
6180
3E00
ENDCHAR
STARTCHAR OE
ENCODING 206
SWIDTH 998 0
DWIDTH 16 0
BBX 14 11 1 0
BITMAP
1FFC
6184
4080
8080
8088
80F8
8088
8080
C080
6184
3FFC
ENDCHAR
STARTCHAR oe
ENCODING 207
SWIDTH 827 0
DWIDTH 13 0
BBX 12 7 0 0
BITMAP
3CE0
C730
8210
83F0
8200
C710
79E0
ENDCHAR
STARTCHAR endash
ENCODING 208
SWIDTH 500 0
DWIDTH 9 0
BBX 7 1 1 4
BITMAP
FE
ENDCHAR
STARTCHAR emdash
ENCODING 209
SWIDTH 1000 0
DWIDTH 15 0
BBX 13 1 1 4
BITMAP
FFF8
ENDCHAR
STARTCHAR quotedblleft
ENCODING 210
SWIDTH 500 0
DWIDTH 7 0
BBX 5 3 1 8
BITMAP
48
90
90
ENDCHAR
STARTCHAR quotedblright
ENCODING 211
SWIDTH 500 0
DWIDTH 7 0
BBX 5 3 0 8
BITMAP
48
48
90
ENDCHAR
STARTCHAR quoteleft
ENCODING 212
SWIDTH 278 0
DWIDTH 4 0
BBX 2 3 1 8
BITMAP
40
80
80
ENDCHAR
STARTCHAR quoteright
ENCODING 213
SWIDTH 278 0
DWIDTH 4 0
BBX 2 3 0 8
BITMAP
40
40
80
ENDCHAR
STARTCHAR divide
ENCODING 214
SWIDTH 549 0
DWIDTH 8 0
BBX 7 7 0 0
BITMAP
10
10
00
FE
00
10
10
ENDCHAR
STARTCHAR lozenge
ENCODING 215
SWIDTH 494 0
DWIDTH 7 0
BBX 7 10 0 0
BITMAP
10
28
44
44
82
82
44
44
28
10
ENDCHAR
STARTCHAR ydieresis
ENCODING 216
SWIDTH 556 0
DWIDTH 7 0
BBX 8 14 -1 -4
BITMAP
24
24
00
E7
42
64
24
28
18
10
10
20
20
C0
ENDCHAR
STARTCHAR Ydieresis
ENCODING 217
SWIDTH 667 0
DWIDTH 9 0
BBX 9 11 0 0
BITMAP
2400
2400
0000
0000
C180
4100
2200
1400
0800
0800
1C00
ENDCHAR
STARTCHAR fraction
ENCODING 218
SWIDTH 167 0
DWIDTH 2 0
BBX 6 12 -2 -1
BITMAP
04
04
08
08
10
10
20
20
40
40
80
80
ENDCHAR
STARTCHAR currency
ENCODING 219
SWIDTH 606 0
DWIDTH 9 0
BBX 7 7 1 2
BITMAP
BA
44
82
82
82
44
BA
ENDCHAR
STARTCHAR guilsinglleft
ENCODING 220
SWIDTH 331 0
DWIDTH 4 0
BBX 3 5 0 2
BITMAP
20
40
80
40
20
ENDCHAR
STARTCHAR guilsinglright
ENCODING 221
SWIDTH 331 0
DWIDTH 4 0
BBX 3 5 0 2
BITMAP
80
40
20
40
80
ENDCHAR
STARTCHAR fi
ENCODING 222
SWIDTH 605 0
DWIDTH 8 0
BBX 7 11 0 0
BITMAP
30
54
44
40
FC
44
44
44
44
44
EE
ENDCHAR
STARTCHAR fl
ENCODING 223
SWIDTH 608 0
DWIDTH 9 0
BBX 8 11 0 0
BITMAP
36
52
42
42
F2
42
42
42
42
42
E7
ENDCHAR
STARTCHAR daggerdbl
ENCODING 224
SWIDTH 500 0
DWIDTH 7 0
BBX 5 14 1 -3
BITMAP
20
20
20
20
F8
20
20
20
20
F8
20
20
20
20
ENDCHAR
STARTCHAR periodcentered
ENCODING 225
SWIDTH 250 0
DWIDTH 4 0
BBX 2 2 1 4
BITMAP
C0
C0
ENDCHAR
STARTCHAR quotesinglbase
ENCODING 226
SWIDTH 278 0
DWIDTH 4 0
BBX 2 3 0 -1
BITMAP
40
40
80
ENDCHAR
STARTCHAR quotedblbase
ENCODING 227
SWIDTH 500 0
DWIDTH 7 0
BBX 5 3 0 -1
BITMAP
48
48
90
ENDCHAR
STARTCHAR perthousand
ENCODING 228
SWIDTH 1144 0
DWIDTH 17 0
BBX 15 12 1 -1
BITMAP
6100
DF00
9200
9200
9400
658C
0B5A
0A52
1252
1252
218C
2000
ENDCHAR
STARTCHAR Acircumflex
ENCODING 229
SWIDTH 778 0
DWIDTH 9 0
BBX 9 11 0 0
BITMAP
0800
1400
2200
0000
0800
1400
2200
3E00
4100
4100
E380
ENDCHAR
STARTCHAR Ecircumflex
ENCODING 230
SWIDTH 611 0
DWIDTH 9 0
BBX 7 11 1 0
BITMAP
10
28
44
00
FE
42
40
78
40
42
FE
ENDCHAR
STARTCHAR Aacute
ENCODING 231
SWIDTH 778 0
DWIDTH 9 0
BBX 9 11 0 0
BITMAP
0400
0800
1000
0000
0800
1400
2200
3E00
4100
4100
E380
ENDCHAR
STARTCHAR Edieresis
ENCODING 232
SWIDTH 611 0
DWIDTH 9 0
BBX 7 11 1 0
BITMAP
48
48
00
00
FE
42
40
78
40
42
FE
ENDCHAR
STARTCHAR Egrave
ENCODING 233
SWIDTH 611 0
DWIDTH 9 0
BBX 7 11 1 0
BITMAP
20
10
08
00
FE
42
40
78
40
42
FE
ENDCHAR
STARTCHAR Iacute
ENCODING 234
SWIDTH 337 0
DWIDTH 5 0
BBX 3 11 1 0
BITMAP
20
40
80
00
E0
40
40
40
40
40
E0
ENDCHAR
STARTCHAR Icircumflex
ENCODING 235
SWIDTH 337 0
DWIDTH 5 0
BBX 5 11 0 0
BITMAP
20
50
88
00
70
20
20
20
20
20
70
ENDCHAR
STARTCHAR Idieresis
ENCODING 236
SWIDTH 337 0
DWIDTH 5 0
BBX 4 11 1 0
BITMAP
90
90
00
00
E0
40
40
40
40
40
E0
ENDCHAR
STARTCHAR Igrave
ENCODING 237
SWIDTH 337 0
DWIDTH 5 0
BBX 3 11 1 0
BITMAP
80
40
20
00
E0
40
40
40
40
40
E0
ENDCHAR
STARTCHAR Oacute
ENCODING 238
SWIDTH 786 0
DWIDTH 12 0
BBX 10 11 1 0
BITMAP
0200
0400
0800
0000
1F00
6180
40C0
8040
C080
6180
3E00
ENDCHAR
STARTCHAR Ocircumflex
ENCODING 239
SWIDTH 786 0
DWIDTH 12 0
BBX 10 11 1 0
BITMAP
0400
0A00
1100
0000
1F00
6180
40C0
8040
C080
6180
3E00
ENDCHAR
STARTCHAR apple
ENCODING 240
SWIDTH 790 0
DWIDTH 12 0
BBX 10 10 1 0
BITMAP
0300
0700
0600
7580
FFC0
FF00
FF00
FFC0
7F80
3B00
ENDCHAR
STARTCHAR Ograve
ENCODING 241
SWIDTH 786 0
DWIDTH 12 0
BBX 10 11 1 0
BITMAP
0800
0400
0200
0000
1F00
6180
40C0
8040
C080
6180
3E00
ENDCHAR
STARTCHAR Uacute
ENCODING 242
SWIDTH 778 0
DWIDTH 11 0
BBX 9 11 1 0
BITMAP
0400
0800
1000
0000
E380
4100
4100
4100
4100
6300
3E00
ENDCHAR
STARTCHAR Ucircumflex
ENCODING 243
SWIDTH 778 0
DWIDTH 11 0
BBX 9 11 1 0
BITMAP
0800
1400
2200
0000
E380
4100
4100
4100
4100
6300
3E00
ENDCHAR
STARTCHAR Ugrave
ENCODING 244
SWIDTH 778 0
DWIDTH 11 0
BBX 9 11 1 0
BITMAP
1000
0800
0400
0000
E380
4100
4100
4100
4100
6300
3E00
ENDCHAR
STARTCHAR dotlessi
ENCODING 245
SWIDTH 287 0
DWIDTH 4 0
BBX 3 7 0 0
BITMAP
C0
40
40
40
40
40
E0
ENDCHAR
STARTCHAR circumflex
ENCODING 246
SWIDTH 333 0
DWIDTH 7 0
BBX 5 3 1 8
BITMAP
20
50
88
ENDCHAR
STARTCHAR tilde
ENCODING 247
SWIDTH 333 0
DWIDTH 7 0
BBX 5 2 1 8
BITMAP
48
B0
ENDCHAR
STARTCHAR macron
ENCODING 248
SWIDTH 333 0
DWIDTH 7 0
BBX 5 1 1 8
BITMAP
F8
ENDCHAR
STARTCHAR breve
ENCODING 249
SWIDTH 333 0
DWIDTH 6 0
BBX 4 2 1 8
BITMAP
90
60
ENDCHAR
STARTCHAR dotaccent
ENCODING 250
SWIDTH 250 0
DWIDTH 3 0
BBX 1 2 1 8
BITMAP
80
80
ENDCHAR
STARTCHAR ring
ENCODING 251
SWIDTH 333 0
DWIDTH 5 0
BBX 4 4 1 8
BITMAP
60
90
90
60
ENDCHAR
STARTCHAR cedilla
ENCODING 252
SWIDTH 333 0
DWIDTH 5 0
BBX 3 3 1 -3
BITMAP
40
20
C0
ENDCHAR
STARTCHAR hungarumlaut
ENCODING 253
SWIDTH 380 0
DWIDTH 8 0
BBX 6 3 1 8
BITMAP
24
48
90
ENDCHAR
STARTCHAR ogonek
ENCODING 254
SWIDTH 313 0
DWIDTH 4 0
BBX 2 3 1 -3
BITMAP
40
80
C0
ENDCHAR
STARTCHAR caron
ENCODING 255
SWIDTH 333 0
DWIDTH 7 0
BBX 5 3 1 8
BITMAP
88
50
20
ENDCHAR
ENDFONT
